<svg xmlns="http://www.w3.org/2000/svg" xmlns:xlink="http://www.w3.org/1999/xlink" viewBox="0 13 509 114">
  <defs>
    <style>
      .cls-1 {
        fill: none;
        clip-path: url(#clip-Web_1920_1);
      }

      .cls-2 {
        fill: #004479;
      }

      .cls-3 {
        fill: #ccd325;
      }

      .cls-4 {
        fill: #272525;
      }
    </style>
    <clipPath id="clip-Web_1920_1">
      <rect y="13" width="509" height="114"/>
    </clipPath>
  </defs>
  <g id="Web_1920_1" data-name="Web 1920 – 1" class="cls-1">
    <g id="group-1" transform="translate(9 20)">
      <g id="group">
        <g id="group-2" data-name="group">
          <g id="group-3" data-name="group">
            <path id="path" class="cls-2" d="M236.3,95.2c-5-1.6-12.1-3.5-20.1-5.7-15.9-4.6-35.1-10.5-48.6-19-8.9-5.6-15.8-12.6-16.1-21.7v-.5c0-6.3,3.4-11.7,8.3-16.1s11.5-7.9,18.7-10.9c14.5-6.1,32-10.2,45.2-13.3,3.8-.9,7.4-1.7,10.3-2.5a131.474,131.474,0,0,0-21.7-1.8c-18,0-36.6,3.5-57.1,10.2-18,5.9-28.8,12.5-35,19-5.7,6-7.6,11.9-7.9,17.8-.6-.4-1.2-.9-1.7-1.3-6.3-5-25.8-18.2-25.7-25C85,16.8,98.3,9,102.4,7.7s25-1.3,25-1.3l.4-4.1S86.1.8,71.1.8A21.9,21.9,0,0,0,59.5,3.6c-6,3.5-18.2,10.7-18.2,21.6S62.5,46.8,78.9,58.7s8.7,18.4-5.9,22c-7.6,1.8-23.9-.4-34.3-3.6V22.9H0V98a82.36,82.36,0,0,1,19.3-6.1c10.8-2,19.4-2.7,19.4-2.7V89c4.8,0,15.4.1,33.3,1.5,10.8.9,34.5,6.2,39.4,6.2,4.4,0,19.2-8,21.8-18.5,8.3,4.9,19.1,9.1,32.1,11.7C192.9,95.4,211.1,97,223,97a79.319,79.319,0,0,0,15-1.2A11.5,11.5,0,0,0,236.3,95.2Z"/>
            <rect id="rectangle" class="cls-3" width="38.5" height="22.9"/>
          </g>
        </g>
      </g>
      <path id="path-2" data-name="path" class="cls-4" d="M262.7,6.3,259,25.7h-2.4l3.7-19.4h2.4Z"/>
      <path id="path-3" data-name="path" class="cls-4" d="M263.3,25.7l1.8-9.9c.3-1.6.5-2.9.7-4.1H268l-.4,2.7h.1a6.132,6.132,0,0,1,5.2-3.1c1.6,0,3.5,1,3.5,3.9a8.919,8.919,0,0,1-.3,2.2l-1.6,8.1h-2.4l1.5-8.1a9.907,9.907,0,0,0,.2-1.8c0-1.4-.5-2.4-2.2-2.4s-4.1,2-4.7,5.5l-1.3,6.8h-2.3Z"/>
      <path id="path-4" data-name="path" class="cls-4" d="M278.8,28.9a7.455,7.455,0,0,0,3.7.9c2.4,0,4.2-1.2,5-4.9l.5-2.1h-.1a5.538,5.538,0,0,1-4.8,3c-2.8,0-4.3-2.4-4.3-4.8,0-4.7,3.5-9.4,8.8-9.4a11.941,11.941,0,0,1,4.5,1L290,24c-.5,3-1.4,5-2.8,6.2a7.481,7.481,0,0,1-4.9,1.5,8.128,8.128,0,0,1-4.2-1Zm10.7-15a6.057,6.057,0,0,0-2.3-.5c-3.5,0-5.9,3.7-5.9,7.1,0,1.6.5,3.3,2.7,3.3,2,0,4.1-2.6,4.6-5.3Z"/>
      <path id="path-5" data-name="path" class="cls-4" d="M303.8,25a9.429,9.429,0,0,1-4.6,1.1c-3.7,0-5.3-2.5-5.3-5.6,0-4.2,3.1-8.9,7.6-8.9,2.6,0,4.1,1.6,4.1,3.6,0,3.7-4.1,4.6-9.3,4.5a5.979,5.979,0,0,0,.3,2.6,3.087,3.087,0,0,0,3.1,1.9,7.1,7.1,0,0,0,3.7-1Zm-.6-9.9a1.878,1.878,0,0,0-2.1-1.8c-2.3,0-4,2.2-4.5,4.4,3.7.1,6.6-.4,6.6-2.6Z"/>
      <path id="path-6" data-name="path" class="cls-4" d="M306.8,25.7l1.8-9.9c.3-1.6.5-2.9.7-4.1h2.2l-.4,2.7h.1a6.132,6.132,0,0,1,5.2-3.1c1.6,0,3.5,1,3.5,3.9a8.919,8.919,0,0,1-.3,2.2L318,25.5h-2.4l1.5-8.1a9.907,9.907,0,0,0,.2-1.8c0-1.4-.5-2.4-2.2-2.4s-4.1,2-4.7,5.5l-1.3,6.8h-2.3Z"/>
      <path id="path-7" data-name="path" class="cls-4" d="M322.1,25.7l2.6-13.9h2.4l-2.6,13.9Zm4.5-16.5a1.483,1.483,0,0,1-1.4-1.6,1.605,1.605,0,0,1,1.6-1.7,1.5,1.5,0,0,1,1.5,1.6,1.626,1.626,0,0,1-1.7,1.7Z"/>
      <path id="path-8" data-name="path" class="cls-4" d="M338.7,25a9.429,9.429,0,0,1-4.6,1.1c-3.7,0-5.3-2.5-5.3-5.6,0-4.2,3.1-8.9,7.6-8.9,2.6,0,4.1,1.6,4.1,3.6,0,3.7-4.1,4.6-9.3,4.5a5.979,5.979,0,0,0,.3,2.6,3.087,3.087,0,0,0,3.1,1.9,7.1,7.1,0,0,0,3.7-1Zm-.5-9.9a1.878,1.878,0,0,0-2.1-1.8c-2.3,0-4,2.2-4.5,4.4,3.7.1,6.6-.4,6.6-2.6Z"/>
      <path id="path-9" data-name="path" class="cls-4" d="M341.7,25.7l1.7-9c.3-1.8.5-3.7.7-4.9h2.1c-.1,1-.2,1.9-.4,3h.1c.9-1.9,2.4-3.3,4.3-3.3a1.7,1.7,0,0,1,.7.1l-.5,2.4c-.2,0-.4-.1-.7-.1-2,0-3.9,2.5-4.5,5.7l-1.1,6.2h-2.4Z"/>
      <path id="path-10" data-name="path" class="cls-4" d="M350.9,25.7l2.6-13.9h2.4l-2.6,13.9ZM359.3,6l-3.8,4.1h-1.8L356.5,6h2.8Z"/>
      <path id="path-11" data-name="path" class="cls-4" d="M366.7,25.7a28.659,28.659,0,0,1,.3-3.6h0c-1.5,2.9-3.5,3.9-5.4,3.9-2.5,0-4-2-4-4.6,0-4.9,3.6-10,9.6-10a13.242,13.242,0,0,1,3.7.5l-1.4,7.3a32.961,32.961,0,0,0-.6,6.4h-2.2Zm1.5-12.1a5.136,5.136,0,0,0-1.6-.2c-3.6,0-6.6,3.7-6.6,7.6,0,1.6.5,3.1,2.4,3.1,2,0,4.4-2.6,5-6.3Z"/>
      <path id="path-12" data-name="path" class="cls-4" d="M371.4,29.3a43.2,43.2,0,0,0,2.8-6.9l2.8-.3a44.111,44.111,0,0,1-3.8,7Z"/>
      <path id="path-13" data-name="path" class="cls-4" d="M256.5,56.6a7.366,7.366,0,0,0,4.1,1.2c2.2,0,4.2-1.3,4.2-3.6,0-1.5-.8-2.5-2.8-3.6-2.5-1.4-3.9-2.9-3.9-5,0-3.5,3-5.7,6.6-5.7a7.2,7.2,0,0,1,4,1l-.9,2a5.423,5.423,0,0,0-3.3-.9c-2.4,0-3.9,1.6-3.9,3.2s1,2.5,3,3.6c2.4,1.3,3.7,2.8,3.7,5.2,0,3.4-2.6,6-7,6a7.3,7.3,0,0,1-4.7-1.4Z"/>
      <path id="path-14" data-name="path" class="cls-4" d="M279.8,58.8a9.429,9.429,0,0,1-4.6,1.1c-3.7,0-5.3-2.5-5.3-5.6,0-4.2,3.1-8.9,7.6-8.9,2.6,0,4.1,1.6,4.1,3.6,0,3.7-4.1,4.6-9.3,4.5a5.979,5.979,0,0,0,.3,2.6,3.087,3.087,0,0,0,3.1,1.9,7.1,7.1,0,0,0,3.7-1Zm-.5-9.8a1.878,1.878,0,0,0-2.1-1.8c-2.3,0-4,2.2-4.5,4.4,3.7.1,6.6-.4,6.6-2.6Z"/>
      <path id="path-15" data-name="path" class="cls-4" d="M282.8,59.6l1.7-9c.3-1.8.5-3.7.7-4.9h2.1c-.1,1-.2,1.9-.4,3h.1c.9-1.9,2.4-3.3,4.3-3.3a1.7,1.7,0,0,1,.7.1l-.5,2.4c-.2,0-.4-.1-.7-.1-2,0-3.9,2.5-4.5,5.7l-1.2,6.2h-2.3Z"/>
      <path id="path-16" data-name="path" class="cls-4" d="M295.8,45.7l1.2,7.9c.2,1.6.4,2.7.4,3.4h.1c.3-.7.7-1.7,1.5-3.2l4.2-8.1h2.6l-7.7,13.9h-2.3l-2.4-13.9h2.4Z"/>
      <path id="path-17" data-name="path" class="cls-4" d="M305.8,59.6l2.6-13.9h2.4l-2.6,13.9Zm4.5-16.5a1.483,1.483,0,0,1-1.4-1.6,1.667,1.667,0,0,1,1.6-1.7,1.5,1.5,0,0,1,1.5,1.6,1.685,1.685,0,0,1-1.7,1.7Z"/>
      <path id="path-18" data-name="path" class="cls-4" d="M321.9,59a8.708,8.708,0,0,1-4,.9c-3.6,0-5.3-2.4-5.3-5.4,0-4.8,3.5-9.2,8.5-9.2a7.457,7.457,0,0,1,2.9.6l-.7,1.9a4.772,4.772,0,0,0-2.4-.5c-3.6,0-5.9,3.6-5.9,6.9,0,2.3,1.2,3.7,3.5,3.7a6.5,6.5,0,0,0,3.2-.8Z"/>
      <path id="path-19" data-name="path" class="cls-4" d="M324.5,59.6l2.6-13.9h2.4l-2.6,13.9ZM329,43.1a1.483,1.483,0,0,1-1.4-1.6,1.605,1.605,0,0,1,1.6-1.7,1.5,1.5,0,0,1,1.5,1.6,1.628,1.628,0,0,1-1.7,1.7Z"/>
      <path id="path-20" data-name="path" class="cls-4" d="M336.7,59.9c-3.5,0-5.4-2.6-5.4-5.7,0-4.6,3.2-8.8,7.7-8.8,3.8,0,5.5,2.8,5.5,5.8,0,4.3-3.1,8.7-7.8,8.7ZM337,58c2.8,0,4.9-3.6,4.9-6.9,0-1.6-.7-3.9-3.2-3.9-3,0-5,3.7-5,6.8.1,2.4,1.3,4,3.3,4Z"/>
      <path id="path-21" data-name="path" class="cls-4" d="M346.3,57.2a5.921,5.921,0,0,0,3,.9,2.349,2.349,0,0,0,2.6-2.3c0-1.1-.5-1.8-2-2.6-1.6-.9-2.5-2.1-2.5-3.5,0-2.4,2.1-4.3,5.1-4.3a5.355,5.355,0,0,1,2.9.7l-.7,1.8a4.647,4.647,0,0,0-2.4-.6,2.23,2.23,0,0,0-2.5,2.1c0,1,.7,1.6,1.9,2.3,1.6.9,2.6,2.1,2.6,3.7,0,2.9-2.4,4.6-5.3,4.6a6.334,6.334,0,0,1-3.5-1Z"/>
      <path id="path-22" data-name="path" class="cls-4" d="M365.2,45.7l1.4,7.5c.3,1.6.5,2.6.6,3.7h.1c.4-.9.8-1.9,1.5-3.4l3.6-7.7h2.5l-5.2,10.6c-1.5,3-2.9,5.5-4.8,7.3a8.888,8.888,0,0,1-4,2.4l-.6-2a8.426,8.426,0,0,0,2.6-1.4,8.681,8.681,0,0,0,2.7-3.2,1.268,1.268,0,0,0,.1-.6l-2.8-13.1h2.3Z"/>
      <path id="path-23" data-name="path" class="cls-4" d="M268.5,92a12.388,12.388,0,0,1-5,.9c-4.9,0-7.9-3.1-7.9-8.1a12.092,12.092,0,0,1,4.1-9.3,11.052,11.052,0,0,1,7.3-2.6,8.056,8.056,0,0,1,4.2.9l-.8,1.9a8.281,8.281,0,0,0-3.8-.8,8.4,8.4,0,0,0-5.6,2.2,10.237,10.237,0,0,0-3,7.4c0,3.5,1.6,6.3,5.9,6.3A9.979,9.979,0,0,0,268,90Z"/>
      <path id="path-24" data-name="path" class="cls-4" d="M276.4,92.9c-3.5,0-5.4-2.6-5.4-5.7,0-4.6,3.2-8.8,7.7-8.8,3.8,0,5.5,2.8,5.5,5.8-.1,4.2-3.1,8.7-7.8,8.7Zm.3-1.9c2.8,0,4.9-3.6,4.9-6.9,0-1.6-.7-3.9-3.2-3.9-3,0-5,3.7-5,6.8,0,2.4,1.3,4,3.3,4Z"/>
      <path id="path-25" data-name="path" class="cls-4" d="M285.8,92.6l1.9-9.9a40.679,40.679,0,0,0,.6-4.1h2.1l-.4,2.6h.1a5.692,5.692,0,0,1,4.9-2.9,3.019,3.019,0,0,1,3.2,3.1,5.858,5.858,0,0,1,5.1-3.1,3.331,3.331,0,0,1,3.4,3.7,23.2,23.2,0,0,1-.2,2.4l-1.6,8.2h-2.3l1.5-8a9.907,9.907,0,0,0,.2-1.8c0-1.5-.5-2.4-2.1-2.4-1.7,0-3.8,2-4.4,5.1l-1.3,7.1h-2.3l1.6-8.2a9.852,9.852,0,0,0,.2-1.7c0-1.2-.3-2.4-2.1-2.4s-3.9,2.3-4.5,5.3l-1.3,7h-2.3Z"/>
      <path id="path-26" data-name="path" class="cls-4" d="M322.6,78.7l-1.9,9.9a40.679,40.679,0,0,0-.6,4.1H318l.4-2.6h-.1a6.308,6.308,0,0,1-4.9,2.9c-1.8,0-3.7-.9-3.7-4a12,12,0,0,1,.3-2.4l1.5-7.9h2.4l-1.5,7.8a16.829,16.829,0,0,0-.2,2c0,1.4.6,2.4,2.2,2.4,1.8,0,4-2,4.5-5.1l1.4-7.1h2.3Z"/>
      <path id="path-27" data-name="path" class="cls-4" d="M324.2,92.6l1.8-9.9c.3-1.6.5-2.9.7-4.1h2.2l-.4,2.7h.1a6.027,6.027,0,0,1,5.2-3c1.6,0,3.5,1,3.5,3.9a8.919,8.919,0,0,1-.3,2.2l-1.6,8.1H333l1.5-8.1a9.907,9.907,0,0,0,.2-1.8c0-1.4-.5-2.4-2.2-2.4s-4.1,2-4.7,5.5l-1.3,6.8h-2.3Z"/>
      <path id="path-28" data-name="path" class="cls-4" d="M339.5,92.6l2.6-13.9h2.4l-2.6,13.9ZM344,76.1a1.483,1.483,0,0,1-1.4-1.6,1.605,1.605,0,0,1,1.6-1.7,1.5,1.5,0,0,1,1.5,1.6,1.628,1.628,0,0,1-1.7,1.7Z"/>
      <path id="path-29" data-name="path" class="cls-4" d="M355.7,92a8.708,8.708,0,0,1-4,.9,5.036,5.036,0,0,1-5.4-5.4c0-4.8,3.5-9.2,8.5-9.2a7.457,7.457,0,0,1,2.9.6l-.7,1.9a4.772,4.772,0,0,0-2.4-.5c-3.6,0-5.9,3.6-5.9,6.9,0,2.3,1.2,3.7,3.5,3.7a6.5,6.5,0,0,0,3.2-.8Z"/>
      <path id="path-30" data-name="path" class="cls-4" d="M367.1,92.6a28.659,28.659,0,0,1,.3-3.6h-.1c-1.5,2.9-3.5,3.9-5.4,3.9-2.5,0-4-2-4-4.6,0-4.9,3.6-10,9.6-10a13.242,13.242,0,0,1,3.7.5l-1.4,7.3a32.961,32.961,0,0,0-.6,6.4h-2.1Zm1.5-12.2a5.136,5.136,0,0,0-1.6-.2c-3.6,0-6.6,3.7-6.6,7.6,0,1.6.5,3.1,2.4,3.1,2,0,4.4-2.6,5-6.3Z"/>
      <path id="path-31" data-name="path" class="cls-4" d="M382.4,92a8.708,8.708,0,0,1-4,.9c-3.6,0-5.3-2.4-5.3-5.4,0-4.8,3.5-9.2,8.5-9.2a7.457,7.457,0,0,1,2.9.6l-.7,1.9a4.772,4.772,0,0,0-2.4-.5c-3.6,0-5.9,3.6-5.9,6.9,0,2.3,1.2,3.7,3.5,3.7a6.5,6.5,0,0,0,3.2-.8Z"/>
      <path id="path-32" data-name="path" class="cls-4" d="M385,92.6l2.6-13.9H390l-2.6,13.9Zm4.5-16.5a1.483,1.483,0,0,1-1.4-1.6,1.605,1.605,0,0,1,1.6-1.7,1.5,1.5,0,0,1,1.5,1.6,1.685,1.685,0,0,1-1.7,1.7Z"/>
      <path id="path-33" data-name="path" class="cls-4" d="M397.2,92.9c-3.5,0-5.4-2.6-5.4-5.7,0-4.6,3.2-8.8,7.7-8.8,3.8,0,5.5,2.8,5.5,5.8-.1,4.2-3.1,8.7-7.8,8.7Zm.3-1.9c2.8,0,4.9-3.6,4.9-6.9,0-1.6-.7-3.9-3.2-3.9-3,0-5,3.7-5,6.8,0,2.4,1.3,4,3.3,4Z"/>
      <path id="path-34" data-name="path" class="cls-4" d="M406.6,92.6l1.8-9.9c.3-1.6.5-2.9.7-4.1h2.2l-.4,2.7h.1a6.027,6.027,0,0,1,5.2-3c1.6,0,3.5,1,3.5,3.9a8.919,8.919,0,0,1-.3,2.2l-1.6,8.1h-2.4l1.5-8.1a9.907,9.907,0,0,0,.2-1.8c0-1.4-.5-2.4-2.2-2.4s-4.1,2-4.7,5.5l-1.3,6.8h-2.3Z"/>
      <path id="path-35" data-name="path" class="cls-4" d="M432,91.8a9.429,9.429,0,0,1-4.6,1.1c-3.7,0-5.3-2.5-5.3-5.6,0-4.2,3.1-8.9,7.6-8.9,2.6,0,4.1,1.6,4.1,3.6,0,3.7-4.1,4.6-9.3,4.5a5.979,5.979,0,0,0,.3,2.6,3.087,3.087,0,0,0,3.1,1.9,7.1,7.1,0,0,0,3.7-1Zm-.5-9.8a1.878,1.878,0,0,0-2.1-1.8c-2.3,0-4,2.2-4.5,4.4,3.6.1,6.6-.5,6.6-2.6Z"/>
      <path id="path-36" data-name="path" class="cls-4" d="M435.1,90.2a5.921,5.921,0,0,0,3,.9,2.349,2.349,0,0,0,2.6-2.3c0-1.1-.5-1.8-2-2.6-1.6-.9-2.5-2.1-2.5-3.5,0-2.4,2.1-4.3,5.1-4.3a5.355,5.355,0,0,1,2.9.7l-.7,1.8a4.95,4.95,0,0,0-2.4-.6,2.23,2.23,0,0,0-2.5,2.1c0,1,.7,1.6,1.9,2.3,1.6.9,2.6,2.1,2.6,3.7,0,2.9-2.4,4.6-5.3,4.6a5.717,5.717,0,0,1-3.4-1Z"/>
      <path id="path-37" data-name="path" class="cls-4" d="M451.4,89.6a7.366,7.366,0,0,0,4.1,1.2c2.2,0,4.2-1.3,4.2-3.6,0-1.5-.8-2.5-2.8-3.6-2.5-1.4-3.9-2.9-3.9-5,0-3.5,3-5.7,6.6-5.7a7.2,7.2,0,0,1,4,1l-.9,2a5.423,5.423,0,0,0-3.3-.9c-2.4,0-3.9,1.6-3.9,3.2s1,2.5,3,3.6c2.4,1.3,3.7,2.8,3.7,5.2,0,3.4-2.6,6-7,6a7.3,7.3,0,0,1-4.7-1.4Z"/>
      <path id="path-38" data-name="path" class="cls-4" d="M465.7,92.9a1.666,1.666,0,0,1-1.6-1.7,1.817,1.817,0,0,1,1.8-1.9,1.55,1.55,0,0,1,1.6,1.7,1.708,1.708,0,0,1-1.8,1.9Z"/>
      <path id="path-39" data-name="path" class="cls-4" d="M474.4,86.4l-3.1,6.1h-2.5l10-19.4h2.8l2.7,19.4h-2.4l-.8-6.1Zm6.6-1.9-.8-5.6c-.1-1-.2-2.4-.3-3.6h-.1a37.271,37.271,0,0,1-1.6,3.5l-2.9,5.6H481Z"/>
      <path id="path-40" data-name="path" class="cls-4" d="M488.1,92.9a1.666,1.666,0,0,1-1.6-1.7,1.817,1.817,0,0,1,1.8-1.9,1.55,1.55,0,0,1,1.6,1.7,1.708,1.708,0,0,1-1.8,1.9Z"/>
    </g>
  </g>
</svg>
