<?xml version="1.0" encoding="utf-8"?>
<!-- Generator: Adobe Illustrator 22.0.1, SVG Export Plug-In . SVG Version: 6.00 Build 0)  -->
<svg version="1.1" id="Capa_1" xmlns="http://www.w3.org/2000/svg" xmlns:xlink="http://www.w3.org/1999/xlink" x="0px" y="0px"
	 viewBox="0 0 131.7 80.2" style="enable-background:new 0 0 131.7 80.2;" xml:space="preserve">
<style type="text/css">
	.st0{fill:#6DAC3B;}
	.st1{fill-rule:evenodd;clip-rule:evenodd;fill:#000100;}
	.st2{fill-rule:evenodd;clip-rule:evenodd;fill:#6DAC3B;}
</style>
<g>
	<g>
		<g>
			<path class="st0" d="M49.8,19c0.3-0.8,0.7-1.5,1.1-2.3c0.8-1.7,1.6-3.4,2.4-5.1c0.7-1.6,1.4-3.2,2.2-4.8c0.2-0.4,0.4-0.5,0.8-0.5
				c0.2,0,0.5,0,0.7,0c0.4,0,0.5,0.2,0.5,0.5c-0.1,1.6-0.2,3.1-0.3,4.7c-0.1,1.8-0.2,3.6-0.4,5.4c0,0.8-0.1,1.5-0.1,2.3
				c0,0.3-0.2,0.5-0.6,0.5c-0.1,0-0.3,0-0.4,0c-0.1,0-0.3,0-0.4,0c-0.3,0-0.4-0.1-0.4-0.4c0-0.4,0-0.9,0.1-1.3
				c0-0.3-0.1-0.4-0.4-0.4c-0.6,0-1.2,0-1.8,0c-0.4,0-0.6,0.2-0.7,0.5c-0.2,0.4-0.3,0.7-0.5,1.1c-0.2,0.4-0.4,0.5-0.8,0.5
				c-0.2,0-0.3,0-0.5,0C49.7,19.7,49.6,19.5,49.8,19z M54.7,15.8c0.3,0,0.4-0.2,0.4-0.5c0-0.9,0.1-1.9,0.2-2.8c0-0.4,0-0.8,0-1.1
				c0,0-0.1,0-0.1,0c-0.1,0.1-0.2,0.2-0.2,0.3c-0.3,0.7-0.6,1.4-1,2.1c-0.2,0.5-0.5,1.1-0.7,1.6c-0.1,0.2,0,0.4,0.2,0.4
				C53.9,15.8,54.3,15.8,54.7,15.8z"/>
			<path class="st0" d="M62,4.7c-0.3-0.3-0.2-0.4,0.1-0.8c0.1-0.1,0.3-0.3,0.4-0.4c0.5-0.4,0.6-0.4,1-0.1c0.1,0.1,0.3,0.2,0.4,0.3
				c0.2,0.1,0.4,0.1,0.7-0.1c0.1-0.1,0.2-0.1,0.3-0.2c0.8-0.6,1.6-0.7,2.3-0.5c0.5,0.2,1,0.5,1.3,0.8c0.2,0.3,0.2,0.5-0.1,0.8
				c-0.3,0.3-0.6,0.5-1.1,0.7C67.2,5.2,67.1,5.1,67,5c-0.2-0.1-0.3-0.2-0.5-0.3c-0.2-0.1-0.4-0.1-0.7,0.1c-0.2,0.1-0.4,0.3-0.6,0.4
				c-0.7,0.5-1.3,0.6-2,0.4C62.7,5.4,62.3,5.1,62,4.7z M58,19c1.1-4,2.1-8,3.2-12c0.1-0.6,0.3-0.7,0.9-0.7c0.2,0,0.5,0,0.7,0
				c0.5,0,0.6,0.1,0.6,0.6c0.1,1.2,0.1,2.4,0.2,3.6c0.1,1.1,0.1,2.3,0.2,3.4c0,0.2,0.1,0.3,0.1,0.5c0,0,0.1,0,0.1,0
				c0.1-0.2,0.1-0.3,0.2-0.5c0.6-2.3,1.2-4.6,1.8-6.9c0.2-0.6,0.3-0.7,0.9-0.7c1,0,1,0,0.8,1c-1,3.9-2.1,7.8-3.1,11.7
				c-0.2,0.6-0.3,0.7-0.9,0.7c-0.3,0-0.6,0-0.9,0c-0.4,0-0.6-0.2-0.6-0.5c-0.1-1-0.1-2-0.2-3c-0.1-1.3-0.1-2.6-0.2-3.8
				c0-0.2-0.1-0.3-0.1-0.5c0,0-0.1,0-0.1,0c-0.1,0.2-0.2,0.4-0.2,0.6c-0.6,2.2-1.2,4.3-1.7,6.5c-0.1,0.5-0.3,0.7-0.8,0.7
				c-0.1,0-0.3,0-0.4,0C57.9,19.7,57.8,19.5,58,19z"/>
			<path class="st0" d="M67.9,19.4c-1.1-0.5-1.5-1.6-1.2-2.9c0.6-2.4,1.2-4.7,1.9-7.1c0.5-1.9,2.3-3.2,4-3.2c1.1,0,1.9,0.2,2.4,1
				c0.3,0.5,0.5,1.2,0.3,1.9c-0.1,0.6-0.3,1.3-0.5,1.9c-0.2,0.6-0.3,1.3-0.5,1.9c0,0,0,0,0,0c-0.3,1.3-0.7,2.6-1,3.9
				c-0.4,1.3-2,2.7-3.3,2.8C69.2,19.7,68.5,19.7,67.9,19.4z M71.8,16.3c0.6-2.2,1.2-4.4,1.7-6.6c0.1-0.3,0.1-0.6,0.1-0.8
				C73.5,8.2,73,8,72.3,8c-1.1,0-1.8,0.8-2,1.6c-0.3,1.1-0.6,2.2-0.9,3.4c-0.3,1.2-0.6,2.3-0.9,3.5c-0.1,0.3-0.1,0.7,0.1,0.9
				c0.2,0.6,1,0.7,1.9,0.5C71.1,17.6,71.6,17.1,71.8,16.3z"/>
			<path class="st0" d="M74.5,17.4c0-0.2,0-0.4,0-0.6c0-0.3,0.3-0.5,0.6-0.5c0.3,0,0.5,0,0.8,0c0.3,0,0.4,0.1,0.4,0.4
				c-0.1,0.7,0.2,1.1,0.9,1.2c0.8,0.1,1.7-0.4,2-1.3c0.3-0.8,0-1.4-0.4-2c-0.4-0.6-0.9-1.1-1.4-1.6c-0.6-0.7-1.1-1.5-1.1-2.6
				c0-1.8,1.5-3.7,3.4-4c0.2-0.1,0.5-0.1,0.6-0.1c1.7,0,2.7,1.1,2.5,2.8c-0.1,0.6-0.3,0.8-0.9,0.8c0,0-0.1,0-0.1,0
				c-0.8,0-0.8,0-0.8-0.8c0-0.9-0.7-1.1-1.6-1c-0.7,0.2-1.4,1-1.4,1.8c0,0.8,0.3,1.3,0.7,1.8c0.5,0.6,1.1,1.2,1.6,1.8
				c0.5,0.7,0.8,1.4,0.7,2.4c-0.2,1.9-1.9,3.5-3.7,3.7C75.5,19.9,74.5,18.7,74.5,17.4z"/>
		</g>
		<path class="st0" d="M27.6,18.4c0.4-1.7,0.9-3.4,1.3-5c0.3-1.3,0.7-2.7,1-4C30,9.1,30,8.9,30.1,8.6c-0.3,0-0.4,0.2-0.6,0.3
			c-0.7,0.8-0.9,0.6-1.3,0.2c-0.5-0.4-0.5-0.5,0.1-1.1c0.5-0.5,1-1,1.5-1.6c0.3-0.3,0.6-0.5,1.1-0.5c0.4,0,0.8,0,1.2,0
			c0.5,0,0.6,0.1,0.5,0.6c-0.1,0.4-0.2,0.8-0.4,1.3c-0.9,3.5-1.8,7-2.8,10.5c0,0.2-0.1,0.4-0.2,0.6c-0.1,0.2-0.2,0.3-0.4,0.4
			c-0.2,0-0.3,0.1-0.5,0.1C27.5,19.3,27.3,19.1,27.6,18.4z"/>
		<path class="st0" d="M31.1,18.4c0-0.1,0.1-0.2,0.1-0.3c0.1-0.4,0.3-0.8,0.7-1.1c1-0.9,1.9-1.9,2.9-2.8c0.9-1,1.8-1.9,2.8-2.9
			c0.2-0.3,0.4-0.5,0.6-0.8c0.3-0.4,0.5-0.9,0.6-1.4c0.1-0.8-0.4-1.4-1.1-1.4c-0.1,0-0.3,0-0.4,0c-0.5,0-1,0.3-1.4,0.7
			c-0.2,0.2-0.3,0.5-0.6,0.6c-0.4,0.1-0.7,0.1-1.1,0c-0.2,0-0.3-0.2-0.2-0.4C34,8.4,34,8.3,34.1,8.1c0.8-1.3,1.8-2,3.2-2.2
			c0.5-0.1,1.1-0.1,1.6,0.1c1.2,0.3,1.7,1.2,1.6,2.5c0,1.2-0.6,2.3-1.5,3.3c-1.4,1.6-2.9,3-4.3,4.5c-0.2,0.2-0.5,0.4-0.7,0.7
			c-0.1,0.1-0.2,0.2-0.3,0.3c0.1,0.2,0.3,0.2,0.4,0.2c0.6,0,1.2,0,1.8,0c0.6,0,1.1,0,1.7,0c0.5,0,0.6,0.1,0.5,0.6
			c0,0.2-0.1,0.5-0.2,0.7c-0.1,0.2-0.2,0.3-0.4,0.4c-0.2,0-0.4,0-0.6,0c-1.7,0-3.5,0-5.2,0c0,0,0,0-0.1,0
			C30.9,19.2,30.9,19.2,31.1,18.4z"/>
		<path class="st0" d="M41.8,19.2c-1.2-0.2-1.8-1-1.9-2.1c0-0.1,0-0.1,0-0.2c0.1-0.7,0.3-0.8,0.8-0.8c0,0,0.1,0,0.1,0
			c0.5-0.1,0.8,0.1,0.9,0.6c0.1,1,1.8,1,2.5,0.4c0.3-0.2,0.5-0.5,0.6-0.9c0.2-0.7,0.4-1.5,0.6-2.2c0.1-0.8-0.3-1.3-1-1.3
			c-0.9,0-1.7,0-2.6,0c-0.2,0-0.4,0-0.6,0c-0.2,0-0.2-0.1-0.2-0.3c0-0.2,0.1-0.4,0.1-0.6c0.3-1.1,0.6-2.2,0.9-3.3
			c0.1-0.5,0.2-1.1,0.4-1.6c0-0.1,0.1-0.3,0.1-0.4c0.1-0.4,0.3-0.5,0.7-0.5c0.9,0,1.9,0,2.8,0c0.8,0,1.6,0,2.4,0c0.2,0,0.3,0,0.5,0
			c0.2,0,0.3,0.2,0.3,0.4c0,0,0,0,0,0.1c-0.3,1.3-0.4,1.3-1.5,1.3c-1,0-1.9,0-2.9,0c-0.8,0-0.9,0.1-1.1,0.9
			c-0.1,0.6-0.3,1.1-0.4,1.7c0,0.1-0.1,0.2-0.1,0.4c0,0.3,0,0.5,0.4,0.5c0.2,0,0.4,0,0.6,0c0.3,0,0.7,0,1,0c1.8,0.1,2.5,1.7,2.1,3
			c-0.2,0.8-0.4,1.5-0.6,2.2c-0.4,1.6-2.2,2.9-3.5,3C42.7,19.2,42.3,19.2,41.8,19.2z"/>
	</g>
	<g>
		<g>
			<g>
				<path class="st1" d="M28,46.7l-1.1,5.9c-0.5-0.2-1.2-0.3-1.7-0.3c-4.8,0-7.9,4.2-7.9,8.8c0,3.2,1.8,4.9,3.9,4.9
					c1.5,0,3-0.7,4.1-2.4h0.1l-0.2,2.1l3.4,0c0.1-1.5,0.3-3.4,0.6-5.1l2.5-13.9L28,46.7z M25.7,59.3c-0.5,2.5-1.8,3.7-2.9,3.7
					c-1.1,0-1.7-0.9-1.7-2.5c0-2.5,1.6-5.2,3.8-5.2c0.6,0,1.2,0.2,1.5,0.5L25.7,59.3z"/>
				<path class="st1" d="M42.4,56.2c0-2.4-1.8-3.9-4.4-3.9c-4.6,0-7.3,4.2-7.3,8.2c0,3.4,1.9,5.5,5.5,5.5c1.4,0,3.2-0.3,4.7-1.1
					l-0.3-2.8c-1,0.5-2.2,0.8-3.5,0.8c-1.1,0-1.9-0.4-2.4-1c-0.3-0.4-0.4-1-0.4-1.3C39.3,60.8,42.4,59.6,42.4,56.2z M37.6,55.1
					c0.8,0,1.4,0.5,1.4,1.1v0c0,1.2-1.4,1.6-4.3,1.6C34.9,56.6,35.9,55.1,37.6,55.1z"/>
				<polygon class="st1" points="42.2,65.7 45.9,65.7 49.4,46.7 45.7,46.7 				"/>
				<path class="st1" d="M60,50.6c1.4,0,2.7,0.4,3.2,0.8l1.1-3.2c-0.7-0.4-2-0.9-4.1-0.9c-3.8,0-6.8,2.2-6.8,5.9
					c0,2.3,1.8,3.8,3.6,4.8c1.6,0.9,2.3,1.5,2.3,2.6c0,1.4-1.3,2.1-2.7,2.1c-1.6,0-3.1-0.5-4.1-1.1l-1.2,3.2c0.8,0.6,2.6,1.3,5,1.3
					c3.8,0,7-2.1,7-6.1c0-2.2-1.3-3.6-3.4-4.8c-1.5-0.9-2.5-1.5-2.5-2.6C57.4,51.5,58.3,50.6,60,50.6z"/>
				<path class="st1" d="M73.8,52.5l-1.1,6.1c-0.5,2.6-1.8,4.2-3,4.2c-0.9,0-1.3-0.7-1.3-1.5c0-0.5,0.1-1.2,0.2-1.7l1.3-7l-3.7,0
					l-1.3,7.3c-0.2,0.9-0.3,1.7-0.3,2.4c0,2.5,1.2,3.7,3.2,3.7c1.5,0,3-0.7,4.3-2.4l0.1,0L72,65.6l3.3,0c0.2-1.2,0.4-2.6,0.7-4.3
					l1.6-8.9L73.8,52.5z"/>
				<path class="st1" d="M82.3,55.2h-0.1c0.1-0.9,0.2-1.8,0.2-2.7l-3.2,0c-0.1,1.1-0.3,3.3-0.6,5.3l-1.4,7.8l3.7,0l0.9-4.9
					c0.5-2.6,1.6-4.7,3.9-4.7c0.2,0,0.4,0,0.6,0l0.7-3.8c-0.2,0-0.4,0-0.7,0C84.6,52.2,83.2,53.4,82.3,55.2z"/>
				<polygon class="st1" points="14.9,25.5 2,25.5 1.4,28.9 6,28.9 3.3,43.6 7,43.5 9.7,28.9 14.3,28.9 				"/>
				<path class="st1" d="M21,40c-1,0.5-2.2,0.8-3.5,0.8c-1.1,0-1.9-0.4-2.4-1c-0.3-0.4-0.4-1-0.4-1.3c5,0.1,8.2-1.1,8.2-4.4
					c0-2.4-1.8-3.9-4.4-3.9c-4.6,0-7.3,4.2-7.3,8.2c0,3.4,1.9,5.5,5.5,5.5c1.4,0,3.2-0.3,4.7-1.1L21,40z M17.9,32.9
					c0.9,0,1.4,0.5,1.4,1.1v0c0,1.2-1.4,1.6-4.3,1.6C15.2,34.4,16.2,32.9,17.9,32.9z"/>
				<polygon class="st1" points="26.3,43.5 29.7,24.5 26,24.5 22.6,43.5 				"/>
				<path class="st1" d="M34.2,43.8c1.4,0,3.2-0.3,4.7-1l-0.3-2.8c-1,0.5-2.2,0.8-3.5,0.8c-1.1,0-1.9-0.3-2.4-1
					c-0.3-0.4-0.4-1-0.4-1.3c5.1,0.1,8.2-1.1,8.2-4.4c0-2.4-1.8-3.9-4.4-3.9c-4.6,0-7.3,4.2-7.3,8.2C28.7,41.7,30.6,43.8,34.2,43.8z
					 M35.6,32.9c0.9,0,1.4,0.5,1.4,1.1v0c0,1.2-1.4,1.6-4.3,1.6C32.9,34.4,33.9,32.9,35.6,32.9z"/>
				<path class="st1" d="M44.3,43.5l1.8-10.2l2.4,0l0.5-2.9l-2.5,0l0.1-0.7c0.2-1.3,1-2.4,2.2-2.4c0.5,0,0.8,0.1,1.2,0.2l0.6-3.1
					c-0.4-0.2-1.1-0.3-2-0.3c-1.2,0-2.6,0.3-3.6,1.2c-1.3,1.1-1.8,2.7-2.1,4.3L43,30.4h-1.6l-0.5,2.9h1.6l-1.8,10.2L44.3,43.5z"/>
				<path class="st1" d="M64.7,43.4l1-5.8c0.5-2.9,1.9-4.5,3.1-4.5c1,0,1.3,0.6,1.3,1.6c0,0.5,0,1-0.1,1.5l-1.3,7.3l3.7,0l1.4-7.6
					c0.1-0.6,0.2-1.6,0.2-2.2c0-2.3-1.2-3.6-3.2-3.6c-1.7,0-3.2,0.8-4.4,2.5h-0.1l0.2-2.2l-3.3,0c-0.2,1.2-0.4,2.6-0.7,4.3L61,43.4
					H64.7z"/>
				<polygon class="st1" points="80.6,30.3 76.9,30.3 74.5,43.4 78.2,43.4 				"/>
				<path class="st1" d="M79.1,28.6L79.1,28.6c1.3,0,2.4-0.9,2.4-2.3c0-1.2-0.8-2-2-2c-1.2,0-2.3,0.9-2.3,2.3
					C77.3,27.8,78.1,28.6,79.1,28.6z"/>
				<path class="st1" d="M87,40.6c-1.4,0-2.5-0.9-2.5-2.7c0-2.5,1.6-4.8,4.3-4.8c0.7,0,1.3,0.1,1.7,0.3l0.9-2.9
					c-0.6-0.2-1.5-0.5-2.6-0.5c-4.8,0-8.2,3.7-8.2,8.3c0,3.4,2.2,5.4,5.3,5.4c1.5,0,2.8-0.3,3.6-0.7l0-2.9
					C88.9,40.3,88.1,40.6,87,40.6z"/>
				<path class="st1" d="M103.6,30.6c-1-0.3-2.6-0.6-4.1-0.6c-6.2,0-9,4.7-9,9.2c0,2.7,1.6,4.6,3.8,4.6c1.5,0,3.1-0.7,4.3-2.9h0.1
					c-0.1,0.9-0.1,1.8-0.1,2.6l3.4,0c-0.1-1.6,0.2-4.2,0.5-5.9L103.6,30.6z M98.9,36c-0.6,3.2-2,4.5-3.1,4.5c-1,0-1.5-0.9-1.5-2.2
					c0-2.4,1.7-5.5,4.1-5.5c0.4,0,0.7,0,1,0.1L98.9,36z"/>
				<path class="st1" d="M61,35.5c0-1.4-0.4-2.6-1.1-3.6l-2.7,1.8l2-2.5l3-3.5l-3.6,0l-1.6,2.5c-0.4-0.1-0.8-0.1-1.2-0.1
					c-4.4,0-7.6,3.7-7.7,8.2c-0.1,3.2,2,5.4,5.2,5.4C57.7,43.7,60.9,40.2,61,35.5z M51.9,38.3c0-2,1.2-5.2,3.3-5.2
					c1.5,0,1.9,1.2,1.9,2.5c-0.1,2.2-1.3,5.3-3.3,5.3C52.6,40.8,51.9,39.8,51.9,38.3z"/>
			</g>
		</g>
		<path class="st2" d="M3.6,62.3c0,0,6.9,7.3,24.3,11c16.6,3.5,31.3,1.3,31.3,1.3s-15.6,5.7-31.5,2.2C11.3,73.3,3.6,62.3,3.6,62.3z"
			/>
		<path class="st0" d="M120.2,45.5c-5.7,0-10.2-4.6-10.3-10.2c0-5.6,4.6-10.2,10.2-10.3c5.6,0,10.3,4.6,10.3,10.2
			C130.4,40.9,125.9,45.5,120.2,45.5z M120.2,29.1c-3.4,0-6.2,2.8-6.2,6.2c0,3.4,2.8,6.2,6.2,6.2c3.4,0,6.2-2.8,6.2-6.2
			C126.4,31.8,123.6,29.1,120.2,29.1z"/>
	</g>
</g>
</svg>
